<svg id="Layer_1" data-name="Layer 1" xmlns="http://www.w3.org/2000/svg" viewBox="0 0 745.07 490.66"><defs><style>.cls-1{fill:#42210b;}.cls-1,.cls-2,.cls-3,.cls-4,.cls-5,.cls-6{stroke:#000;stroke-miterlimit:10;}.cls-2{fill:#fff;}.cls-3{fill:#603813;}.cls-4{fill:#754c24;}.cls-5{fill:#8c6239;}.cls-6{fill:#a67c52;}</style></defs><title>Untitled-5</title><path class="cls-1" d="M60.5,380.5c-2.54-7.27-11.8-35-12-75-.17-35.18-.31-64.11,17-75,12.16-7.65,19.66,1.93,44-5,22.51-6.41,23.51-16.72,43-22,26.79-7.25,58.05,3.25,59,13,1,10.77-34.73,22.28-37,23-50.38,15.9-84.05-6.55-100,12-6.47,7.53-6,17.69-5,38,1.27,26.27,9.11,40.05,16,62,12.3,39.15,15.15,83.73,8,86C87,439.58,69.74,406.92,60.5,380.5Z" transform="translate(-47.97 -180.86)"/><path class="cls-2" d="M105.5,284.5" transform="translate(-47.97 -180.86)"/><path class="cls-1" d="M102.5,334.5c-2-.53-28.41-7.68-28-16,.31-6.18,15.27-10,35-15,18.64-4.74,30.14-7.53,45-5,11,1.87,28.78,7.5,29,15,.15,5.15-8.06,9.19-16,13C157.45,331.32,133,342.57,102.5,334.5Z" transform="translate(-47.97 -180.86)"/><circle class="cls-3" cx="145.53" cy="184.64" r="46"/><circle class="cls-2" cx="135.53" cy="175.64" r="31"/><circle class="cls-4" cx="285.53" cy="184.64" r="47"/><circle class="cls-2" cx="272.03" cy="175.14" r="27.5"/><ellipse class="cls-3" cx="215.03" cy="202.64" rx="29.5" ry="28"/><path class="cls-4" d="M324.5,181.5c-.82,1,6,7,13.23,15.49,0,0,21.47,25.3,33.77,67.51,3.47,11.9,10.72,43-14,158-8,37.26-14.95,74.75-23,112-1.22,5.63-10.37,48,2,88,3.59,11.61,8.57,21.68,18,25,10.79,3.8,22-3.15,25-5,11-6.82,18.4-19.13,16-22-2.71-3.24-14.56,9.4-26,6-16.41-4.88-19.75-39.13-21-52-2.55-26.13,1.85-47.21,7-71,4.33-20,5.93-20.15,13-49,2.7-11,4-17.4,12-57,12.19-60.62,13.75-68.94,15-84,2.85-34.16-.43-47.9-3-56-5.9-18.6-15.56-31.1-21-38C351.74,194.41,326,179.76,324.5,181.5Z" transform="translate(-47.97 -180.86)"/><path class="cls-3" d="M319.5,488.5c2.24-3.66-19.2-25.67-48-37-10.29-4-28.15-10.81-51-7-8.44,1.41-29.9,5.31-46,24-4.25,4.94-16.46,19.1-16,40,.38,17.48,9.4,29.68,13,34,9.88,11.87,22.09,16.23,36,21,29.3,10.05,40.45,3.15,54,15,7.61,6.65,15.9,19.15,13,30-5.22,19.54-43.8,22.74-59,24-19.86,1.65-41.87,3.47-58-10-20.66-17.26-16.7-47.11-23-47-5.86.1-15.44,26-8,50,9.25,29.8,40,41,43,42,24.65,8.52,46.21,0,69-9,15.95-6.3,39.46-15.59,53-39,3.88-6.7,11-19.44,8-35a41.25,41.25,0,0,0-10-20c-6.76-7.28-13.52-8.78-34-15-33.12-10.06-39.1-13.32-42-15-10.85-6.28-23.38-13.53-25-26-1.71-13.18,9.84-24,12-26,9.81-9.17,21.67-10.56,34-12a92.24,92.24,0,0,1,28,1c8.84,1.7,10.93,3.49,27,9C308.73,487.1,318.34,490.4,319.5,488.5Z" transform="translate(-47.97 -180.86)"/><ellipse class="cls-5" cx="381.03" cy="298.14" rx="21.5" ry="27.5"/><path class="cls-5" d="M416.5,526.5c-4.35,2.27-5.91,7.92-7,25-1.26,19.62-1.88,29.43,0,45,2,16.25,4.91,40.59,11,41,7,.48,14.38-31.06,16-38a149.55,149.55,0,0,0,4-36c.12-16.94,0-26.77-7-33C429.07,526.58,421.61,523.83,416.5,526.5Z" transform="translate(-47.97 -180.86)"/><path class="cls-5" d="M558.5,542.5c-.56-10.19-18.55-16.19-27-19a80.13,80.13,0,0,0-29-4c-10.51.48-21.55,1-31,8-12.66,9.4-15,25-17,38a87.93,87.93,0,0,0,7,51c4.47,9.48,12,25.42,29,33,10.06,4.48,19.41,4.24,29,4,8-.2,19.76-.62,33-7,4.68-2.25,17.83-8.79,27-23,2.11-3.28,7.58-12.49,10-43,.62-7.84,1.46-22.31,0-48-1-16.89-2.14-36.46-7-62a249.5,249.5,0,0,0-15-51c-8.05-19.23-13.32-24.65-19-28-11.43-6.76-24.26-5-32-4-9.45,1.27-23.15,5.13-23,9,.18,4.68,20.26,1.77,36,16,2.86,2.59,1,1.63,14,20,12.42,17.6,5.79,2.87,8,11,1.89,7,11.76,36.49,12,48,.33,16,1.71,11.74,4,29,3.14,23.61,5.79,43.55-2,65-2.71,7.46-5.84,15.77-14,23-15.91,14.1-36.58,11.36-39,11-5.18-.77-21.72-3.23-31-18-5.93-9.44-8.24-22.85-3-34a35.77,35.77,0,0,1,11-13,37.58,37.58,0,0,1,18-8c7.23-1,13.06.76,24,4,11.31,3.35,14.46,5.85,19,4S558.77,547.38,558.5,542.5Z" transform="translate(-47.97 -180.86)"/><path class="cls-6" d="M621.5,580.5c1.14,1.76,4.64,3.6,29-3,34-9.21,51-13.81,57-26s4.22-29.69-5-39c-6.11-6.17-15.08-7.45-33-10-11.77-1.67-17.66-2.51-24-1-14.14,3.37-22.77,13.93-31,24-5.92,7.25-11.47,14-15,24-7.69,21.7-4.41,54.42,18,71,13.1,9.69,27.39,9.91,33,10,20.78.32,43.72-9.83,53-28,4.17-8.16,5.79-18.37,3-20s-8.52,7.22-23,16c-8.07,4.9-16.58,10.06-28,10a41.36,41.36,0,0,1-25-9c-10.62-8.75-17.3-23.85-14-38,2.3-9.89,8.7-16,14-21,3.69-3.51,12.22-11.61,25-14,4.13-.77,6.62-.56,27,1h0c.07,17.36,0,18.43-1,20-1.66,2.58-4.36,4.16-33,9-8.79,1.48-11.39,1.82-15,4C625,565.64,618.78,576.31,621.5,580.5Z" transform="translate(-47.97 -180.86)"/><path class="cls-6" d="M724.5,509.5c4,2.95,3.33,9.64,3,16-1.27,24.72,3.41,20.26,2,43-2.17,34.88-13.15,45.06-5,58,3.74,5.93,11,11.63,16,10,10.24-3.34,8.61-36.46,8-49-1.57-32-9-41.75-1-55,1.18-2,8.26-13.17,21-17,10.64-3.2,16.79,1.29,21-3,6.12-6.23,2.76-25.47-8-30-11.37-4.79-25.28,9.25-26,10-7.71,8-7.83,15.8-12,16-6.39.31-7.74-17.94-17-20-11.24-2.5-26.85,20.48-24,24C704.78,515.31,717.8,504.52,724.5,509.5Z" transform="translate(-47.97 -180.86)"/><path class="cls-2" d="M934.5,732.5" transform="translate(-47.97 -180.86)"/></svg>