<svg id="Layer_1" data-name="Layer 1" xmlns="http://www.w3.org/2000/svg" viewBox="0 0 232 353.22"><defs><style>.cls-1,.cls-2{fill:#754c24;}.cls-1{stroke:#231f20;stroke-linecap:round;stroke-miterlimit:10;}</style></defs><title>user</title><circle class="cls-1" cx="116" cy="70.7" r="70.2"/><rect class="cls-2" x="0.5" y="141.72" width="46" height="194" rx="11.5" ry="11.5"/><path d="M309,380a11,11,0,0,1,11,11V562a11,11,0,0,1-11,11H286a11,11,0,0,1-11-11V391a11,11,0,0,1,11-11h23m0-1H286a12,12,0,0,0-12,12V562a12,12,0,0,0,12,12h23a12,12,0,0,0,12-12V391a12,12,0,0,0-12-12Z" transform="translate(-274 -237.78)"/><rect class="cls-2" x="56.5" y="141.72" width="119" height="211" rx="11.5" ry="11.5"/><path d="M438,380a11,11,0,0,1,11,11V579a11,11,0,0,1-11,11H342a11,11,0,0,1-11-11V391a11,11,0,0,1,11-11h96m0-1H342a12,12,0,0,0-12,12V579a12,12,0,0,0,12,12h96a12,12,0,0,0,12-12V391a12,12,0,0,0-12-12Z" transform="translate(-274 -237.78)"/><rect class="cls-2" x="182.5" y="141.72" width="49" height="194" rx="11.5" ry="11.5"/><path d="M494,380a11,11,0,0,1,11,11V562a11,11,0,0,1-11,11H468a11,11,0,0,1-11-11V391a11,11,0,0,1,11-11h26m0-1H468a12,12,0,0,0-12,12V562a12,12,0,0,0,12,12h26a12,12,0,0,0,12-12V391a12,12,0,0,0-12-12Z" transform="translate(-274 -237.78)"/></svg>